<?xml version="1.0" encoding="iso-8859-1"?>
<!-- Generator: Adobe Illustrator 19.0.0, SVG Export Plug-In . SVG Version: 6.00 Build 0)  -->
<svg version="1.1" id="Capa_1" xmlns="http://www.w3.org/2000/svg" xmlns:xlink="http://www.w3.org/1999/xlink" x="0px" y="0px" fill="#3a1f5b"
	 viewBox="0 0 469.333 469.333" style="enable-background:new 0 0 469.333 469.333;" xml:space="preserve">
<g>
	<g>
		<g>
			<path d="M170.667,320c12.796,0,24.163-5.781,31.991-14.734l54.311,27.156c-0.615,2.879-0.969,5.852-0.969,8.911
				C256,364.865,275.146,384,298.667,384c23.521,0,42.667-19.135,42.667-42.667s-19.146-42.667-42.667-42.667
				c-12.803,0-24.174,5.786-32.003,14.749l-54.305-27.152c0.617-2.884,0.974-5.863,0.974-8.93c0-3.064-0.355-6.04-0.971-8.922
				l54.303-27.159c7.828,8.962,19.199,14.747,32.001,14.747c23.521,0,42.667-19.135,42.667-42.667s-19.146-42.667-42.667-42.667
				c-23.521,0-42.667,19.135-42.667,42.667c0,3.06,0.354,6.034,0.969,8.913l-54.306,27.161
				c-7.828-8.957-19.197-14.741-31.996-14.741c-23.521,0-42.667,19.135-42.667,42.667S147.146,320,170.667,320z"/>
			<path d="M426.667,0h-384C19.146,0,0,19.135,0,42.667v384c0,23.531,19.146,42.667,42.667,42.667h384
				c23.521,0,42.667-19.135,42.667-42.667v-384C469.333,19.135,450.188,0,426.667,0z M138.667,42.667
				c5.891,0,10.667,4.775,10.667,10.667c0,5.891-4.776,10.667-10.667,10.667S128,59.224,128,53.333
				C128,47.441,132.776,42.667,138.667,42.667z M96,42.667c5.891,0,10.667,4.775,10.667,10.667C106.667,59.224,101.891,64,96,64
				s-10.667-4.776-10.667-10.667C85.333,47.441,90.109,42.667,96,42.667z M53.333,42.667C59.224,42.667,64,47.441,64,53.333
				C64,59.224,59.224,64,53.333,64s-10.667-4.776-10.667-10.667C42.667,47.441,47.443,42.667,53.333,42.667z M426.667,426.667h-384
				v-320h384V426.667z"/>
		</g>
	</g>
</g>
<g>
</g>
<g>
</g>
<g>
</g>
<g>
</g>
<g>
</g>
<g>
</g>
<g>
</g>
<g>
</g>
<g>
</g>
<g>
</g>
<g>
</g>
<g>
</g>
<g>
</g>
<g>
</g>
<g>
</g>
</svg>
