<?xml version="1.0" encoding="iso-8859-1"?>
<!-- Generator: Adobe Illustrator 19.0.0, SVG Export Plug-In . SVG Version: 6.00 Build 0)  -->
<svg version="1.1" id="Capa_1" xmlns="http://www.w3.org/2000/svg" xmlns:xlink="http://www.w3.org/1999/xlink" x="0px" y="0px"
	 viewBox="0 0 512.003 512.003" style="enable-background:new 0 0 512.003 512.003;" xml:space="preserve">
<g>
	<g>
		<path d="M143.967,278.632c-4.673,2.768-9.034,6.137-12.975,10.077c-13.732,13.731-21.554,35.314-23.249,64.149
			c-1.187,20.156,1.137,36.736,1.235,37.432l1.593,11.142l11.142,1.592c0.555,0.08,11.211,1.572,25.728,1.572
			c3.687,0,7.621-0.096,11.703-0.336c28.836-1.697,50.418-9.519,64.149-23.25c3.942-3.941,7.309-8.302,10.078-12.975
			L143.967,278.632z"/>
	</g>
</g>
<g>
	<g>
		<path d="M488.328,183.487L328.514,23.674l-54.287,67.061l-79.758-8.862l-88.048,110.94l68.182,16.746l-28.633,28.633
			l127.84,127.841l28.633-28.633l16.746,68.181l110.94-88.047l-8.862-79.758L488.328,183.487z M368.736,176.613h-30.013V146.6
			h30.013V176.613z"/>
	</g>
</g>
<g>
	<g>
		<polygon points="347.678,0 347.503,0.217 511.785,164.499 512.001,164.324 512.001,0 		"/>
	</g>
</g>
<g>
	<g>
		
			<rect x="-5.963" y="446.366" transform="matrix(0.7071 -0.7071 0.7071 0.7071 -311.4105 170.935)" width="113.189" height="30.013"/>
	</g>
</g>
<g>
	<g>
		
			<rect x="-2.285" y="376.434" transform="matrix(0.7071 -0.7071 0.7071 0.7071 -264.5533 144.1924)" width="88.128" height="30.012"/>
	</g>
</g>
<g>
	<g>
		
			<rect x="76.483" y="455.221" transform="matrix(0.7071 -0.7071 0.7071 0.7071 -297.1936 222.9663)" width="88.128" height="30.013"/>
	</g>
</g>
<g>
</g>
<g>
</g>
<g>
</g>
<g>
</g>
<g>
</g>
<g>
</g>
<g>
</g>
<g>
</g>
<g>
</g>
<g>
</g>
<g>
</g>
<g>
</g>
<g>
</g>
<g>
</g>
<g>
</g>
</svg>
